<svg width="328" height="126" viewBox="0 0 328 126" fill="none" xmlns="http://www.w3.org/2000/svg">
<g filter="url(#filter0_d_4_462)">
<rect x="4" y="0.000244141" width="320" height="118" rx="6" fill="white" shape-rendering="crispEdges"/>
<rect x="4.5" y="0.500244" width="319" height="117" rx="5.5" stroke="#E5E7EB" shape-rendering="crispEdges"/>
<circle cx="41" cy="37.0002" r="20" fill="black"/>
<path d="M84.3232 34.8539C83.2791 34.8539 82.3511 34.7114 81.5391 34.4264C80.7304 34.1447 80.0476 33.7287 79.4908 33.1785C78.9339 32.6316 78.5114 31.9638 78.223 31.175C77.9347 30.3861 77.7888 29.4846 77.7855 28.4704C77.7888 27.4794 77.9363 26.5862 78.228 25.7907C78.5196 24.992 78.9455 24.3092 79.5057 23.7424C80.0658 23.1724 80.7502 22.7349 81.5589 22.4299C82.3677 22.125 83.2874 21.9725 84.3182 21.9725C85.2893 21.9725 86.1494 22.12 86.8984 22.415C87.6508 22.71 88.2855 23.121 88.8026 23.648C89.3229 24.1716 89.7157 24.7848 89.9808 25.4875C90.2493 26.1868 90.3835 26.9458 90.3835 27.7644C90.3835 28.3312 90.3404 28.8681 90.2543 29.3752C90.1681 29.879 90.0206 30.3265 89.8118 30.7176C89.6063 31.1087 89.3262 31.4202 88.9716 31.6522C88.617 31.8809 88.1728 32.0052 87.6392 32.0251C87.3045 32.0417 87.0111 32.0102 86.7592 31.9306C86.5073 31.8511 86.3035 31.7268 86.1477 31.5578C85.9953 31.3854 85.8991 31.175 85.8594 30.9264H85.7997C85.7235 31.1252 85.5793 31.3075 85.3672 31.4733C85.1584 31.6357 84.8999 31.7633 84.5916 31.8561C84.2834 31.9456 83.9403 31.982 83.5625 31.9654C83.1581 31.9456 82.7836 31.8528 82.4389 31.687C82.0975 31.518 81.7992 31.2827 81.544 30.9811C81.2921 30.6761 81.0966 30.3082 80.9574 29.8774C80.8182 29.4465 80.7486 28.9576 80.7486 28.4108C80.7486 27.8771 80.8248 27.4065 80.9773 26.9988C81.1297 26.5912 81.3336 26.2431 81.5888 25.9548C81.8473 25.6664 82.139 25.4411 82.4638 25.2787C82.7886 25.1129 83.1233 25.0069 83.468 24.9605C83.826 24.9108 84.1624 24.9157 84.4773 24.9754C84.7921 25.035 85.054 25.1262 85.2628 25.2488C85.4749 25.3715 85.6075 25.5057 85.6605 25.6515H85.7301V25.0947H87.1172V29.8277C87.1205 30.0762 87.1802 30.2768 87.2962 30.4292C87.4155 30.5817 87.5812 30.6579 87.7933 30.6579C88.0585 30.6579 88.2723 30.5535 88.4347 30.3447C88.6004 30.1326 88.7197 29.8078 88.7926 29.3703C88.8688 28.9295 88.9053 28.366 88.902 27.6799C88.9053 27.1165 88.8307 26.6061 88.6783 26.1487C88.5291 25.688 88.317 25.2836 88.0419 24.9356C87.7668 24.5876 87.437 24.2976 87.0526 24.0656C86.6714 23.8303 86.2472 23.6529 85.7798 23.5336C85.3125 23.4143 84.8137 23.3546 84.2834 23.3546C83.4714 23.3546 82.7571 23.4789 82.1406 23.7275C81.5241 23.9728 81.0071 24.3225 80.5895 24.7765C80.1752 25.2306 79.862 25.7692 79.6499 26.3923C79.4411 27.0121 79.3366 27.6982 79.3366 28.4505C79.3366 29.2559 79.446 29.9702 79.6648 30.5933C79.8868 31.2131 80.2116 31.7351 80.6392 32.1593C81.0668 32.5836 81.5954 32.9051 82.2251 33.1238C82.8582 33.3426 83.5857 33.4519 84.4077 33.4519C84.7855 33.4519 85.1551 33.4221 85.5163 33.3625C85.8776 33.3028 86.2024 33.2332 86.4908 33.1537C86.7791 33.0741 87.0012 33.0045 87.157 32.9448L87.5795 34.2076C87.3741 34.3137 87.0956 34.4164 86.7443 34.5159C86.3963 34.6153 86.0118 34.6965 85.5909 34.7595C85.1733 34.8225 84.7507 34.8539 84.3232 34.8539ZM83.9751 30.5386C84.3961 30.5386 84.7325 30.4574 84.9844 30.295C85.2363 30.1293 85.4169 29.884 85.5263 29.5592C85.6357 29.2344 85.6887 28.83 85.6854 28.3461C85.6854 27.8954 85.629 27.5258 85.5163 27.2375C85.4036 26.9491 85.223 26.7353 84.9744 26.5961C84.7259 26.4569 84.3961 26.3873 83.9851 26.3873C83.6139 26.3873 83.2973 26.4718 83.0355 26.6409C82.777 26.8099 82.5781 27.0436 82.4389 27.3419C82.303 27.6368 82.2351 27.9733 82.2351 28.3511C82.2351 28.7289 82.2898 29.0852 82.3991 29.42C82.5118 29.7514 82.6941 30.0216 82.946 30.2304C83.2012 30.4359 83.5443 30.5386 83.9751 30.5386ZM93.7108 27.5258V32.0002H91.911V24.3639H93.6312V25.6615H93.7207C93.8964 25.2339 94.1764 24.8942 94.5609 24.6423C94.9487 24.3904 95.4276 24.2644 95.9977 24.2644C96.5247 24.2644 96.9837 24.3771 97.3748 24.6025C97.7692 24.8279 98.0742 25.1544 98.2896 25.5819C98.5083 26.0095 98.6161 26.5282 98.6127 27.138V32.0002H96.813V27.4164C96.813 26.906 96.6805 26.5066 96.4153 26.2183C96.1535 25.9299 95.7905 25.7858 95.3265 25.7858C95.0117 25.7858 94.7316 25.8554 94.4863 25.9946C94.2444 26.1305 94.0538 26.3277 93.9146 26.5862C93.7787 26.8447 93.7108 27.1579 93.7108 27.5258ZM103.823 32.1494C103.057 32.1494 102.396 31.9903 101.839 31.6721C101.286 31.3506 100.86 30.8966 100.562 30.3099C100.263 29.7199 100.114 29.0256 100.114 28.2268C100.114 27.4413 100.263 26.7519 100.562 26.1586C100.863 25.562 101.284 25.098 101.824 24.7666C102.365 24.4318 102.999 24.2644 103.729 24.2644C104.199 24.2644 104.643 24.3407 105.061 24.4931C105.482 24.6423 105.853 24.8743 106.175 25.1892C106.499 25.504 106.755 25.9051 106.94 26.3923C107.126 26.8762 107.219 27.4529 107.219 28.1224V28.6742H100.959V27.4612H105.493C105.49 27.1165 105.416 26.8099 105.27 26.5414C105.124 26.2697 104.92 26.0559 104.658 25.9001C104.4 25.7443 104.098 25.6664 103.753 25.6664C103.385 25.6664 103.062 25.7559 102.784 25.9349C102.506 26.1106 102.288 26.3426 102.133 26.6309C101.98 26.916 101.902 27.2292 101.899 27.5706V28.6295C101.899 29.0736 101.98 29.4548 102.143 29.773C102.305 30.0878 102.532 30.3298 102.824 30.4988C103.115 30.6645 103.457 30.7474 103.848 30.7474C104.11 30.7474 104.347 30.7109 104.559 30.638C104.771 30.5618 104.955 30.4508 105.111 30.3049C105.266 30.1591 105.384 29.9785 105.464 29.763L107.144 29.9519C107.038 30.3961 106.836 30.7839 106.537 31.1153C106.242 31.4434 105.865 31.6986 105.404 31.8809C104.943 32.0599 104.416 32.1494 103.823 32.1494ZM110.049 24.3639L111.59 27.1828L113.156 24.3639H115.06L112.758 28.1821L115.1 32.0002H113.206L111.59 29.251L109.989 32.0002H108.08L110.407 28.1821L108.14 24.3639H110.049ZM120.265 24.3639V25.7559H115.875V24.3639H120.265ZM116.959 22.5343H118.759V29.7034C118.759 29.9453 118.795 30.1309 118.868 30.2602C118.944 30.3861 119.044 30.4723 119.167 30.5187C119.289 30.5651 119.425 30.5883 119.574 30.5883C119.687 30.5883 119.79 30.58 119.882 30.5635C119.979 30.5469 120.051 30.532 120.101 30.5187L120.404 31.9257C120.308 31.9588 120.171 31.9953 119.992 32.035C119.816 32.0748 119.601 32.098 119.346 32.1046C118.895 32.1179 118.489 32.05 118.127 31.9008C117.766 31.7484 117.48 31.513 117.267 31.1948C117.059 30.8767 116.956 30.4789 116.959 30.0017V22.5343ZM121.77 24.3639H123.57V32.4377C123.57 32.9879 123.466 33.442 123.257 33.8C123.048 34.1579 122.747 34.4247 122.352 34.6004C121.958 34.776 121.479 34.8639 120.915 34.8639C120.849 34.8639 120.788 34.8622 120.731 34.8589C120.675 34.8589 120.614 34.8573 120.547 34.8539V33.3873C120.597 33.3906 120.642 33.3923 120.682 33.3923C120.721 33.3956 120.763 33.3973 120.806 33.3973C121.151 33.3973 121.398 33.3127 121.547 33.1437C121.696 32.978 121.77 32.7344 121.77 32.4129V24.3639ZM122.665 23.2801C122.377 23.2801 122.13 23.1856 121.925 22.9967C121.722 22.8045 121.621 22.5741 121.621 22.3056C121.621 22.0339 121.722 21.8035 121.925 21.6146C122.13 21.4224 122.377 21.3262 122.665 21.3262C122.95 21.3262 123.194 21.4224 123.396 21.6146C123.602 21.8035 123.704 22.0339 123.704 22.3056C123.704 22.5741 123.602 22.8045 123.396 22.9967C123.194 23.1856 122.95 23.2801 122.665 23.2801ZM131.456 26.3823L129.816 26.5613C129.769 26.3956 129.688 26.2398 129.572 26.094C129.459 25.9482 129.307 25.8305 129.115 25.741C128.922 25.6515 128.687 25.6068 128.409 25.6068C128.034 25.6068 127.719 25.688 127.464 25.8504C127.212 26.0128 127.088 26.2233 127.091 26.4818C127.088 26.7038 127.169 26.8845 127.335 27.0237C127.504 27.1629 127.782 27.2772 128.17 27.3667L129.473 27.6451C130.195 27.8009 130.732 28.0478 131.083 28.3859C131.438 28.724 131.617 29.1664 131.62 29.7133C131.617 30.1939 131.476 30.6181 131.198 30.986C130.923 31.3506 130.54 31.6357 130.049 31.8412C129.559 32.0466 128.995 32.1494 128.359 32.1494C127.424 32.1494 126.672 31.9538 126.102 31.5627C125.532 31.1683 125.192 30.6198 125.083 29.9171L126.838 29.7481C126.917 30.0928 127.086 30.353 127.345 30.5287C127.603 30.7043 127.94 30.7921 128.354 30.7921C128.782 30.7921 129.125 30.7043 129.383 30.5287C129.645 30.353 129.776 30.1359 129.776 29.8774C129.776 29.6586 129.691 29.478 129.522 29.3355C129.357 29.193 129.098 29.0836 128.747 29.0073L127.444 28.7339C126.712 28.5814 126.17 28.3246 125.819 27.9633C125.467 27.5987 125.293 27.138 125.297 26.5812C125.293 26.1106 125.421 25.7029 125.679 25.3582C125.941 25.0102 126.304 24.7417 126.768 24.5528C127.235 24.3606 127.774 24.2644 128.384 24.2644C129.279 24.2644 129.983 24.455 130.497 24.8362C131.014 25.2173 131.334 25.7327 131.456 26.3823Z" fill="#0F172A"/>
<path d="M77.6761 46.9122V45.8184H85.3125V46.9122H82.1108V56.0002H80.8778V46.9122H77.6761ZM88.2296 51.4065V56.0002H87.0563V45.8184H88.2296V49.5571H88.329C88.508 49.1626 88.7765 48.8494 89.1344 48.6174C89.4957 48.3821 89.9763 48.2644 90.5762 48.2644C91.0965 48.2644 91.5523 48.3689 91.9434 48.5777C92.3345 48.7832 92.6377 49.0997 92.8532 49.5272C93.0719 49.9515 93.1813 50.4917 93.1813 51.148V56.0002H92.008V51.2275C92.008 50.621 91.8506 50.152 91.5357 49.8206C91.2241 49.4858 90.7916 49.3184 90.2381 49.3184C89.8536 49.3184 89.5089 49.3996 89.204 49.562C88.9024 49.7244 88.6638 49.9614 88.4881 50.273C88.3158 50.5845 88.2296 50.9624 88.2296 51.4065ZM98.5295 56.1593C97.7937 56.1593 97.159 55.9969 96.6254 55.6721C96.0951 55.344 95.6857 54.8866 95.3974 54.3C95.1123 53.71 94.9698 53.0239 94.9698 52.2417C94.9698 51.4595 95.1123 50.7701 95.3974 50.1735C95.6857 49.5736 96.0868 49.1063 96.6005 48.7716C97.1175 48.4335 97.7208 48.2644 98.4102 48.2644C98.8079 48.2644 99.2006 48.3307 99.5884 48.4633C99.9762 48.5959 100.329 48.8113 100.647 49.1096C100.966 49.4046 101.219 49.7957 101.408 50.2829C101.597 50.7701 101.691 51.37 101.691 52.0826V52.5798H95.805V51.5656H100.498C100.498 51.1347 100.412 50.7502 100.24 50.4122C100.071 50.0741 99.8287 49.8073 99.5138 49.6117C99.2023 49.4162 98.8344 49.3184 98.4102 49.3184C97.9428 49.3184 97.5385 49.4344 97.1971 49.6664C96.859 49.8951 96.5988 50.1934 96.4165 50.5613C96.2343 50.9292 96.1431 51.3236 96.1431 51.7446V52.4207C96.1431 52.9974 96.2425 53.4863 96.4414 53.8873C96.6436 54.285 96.9237 54.5883 97.2816 54.7971C97.6396 55.0026 98.0555 55.1054 98.5295 55.1054C98.8377 55.1054 99.1161 55.0623 99.3647 54.9761C99.6166 54.8866 99.8337 54.754 100.016 54.5784C100.198 54.3994 100.339 54.1773 100.439 53.9122L101.572 54.2304C101.453 54.6148 101.252 54.9529 100.971 55.2446C100.689 55.5329 100.341 55.7583 99.9265 55.9207C99.5122 56.0798 99.0465 56.1593 98.5295 56.1593ZM107.573 56.0002V45.8184H111.013C111.809 45.8184 112.462 45.9543 112.972 46.2261C113.482 46.4946 113.86 46.8641 114.105 47.3348C114.351 47.8054 114.473 48.3407 114.473 48.9406C114.473 49.5405 114.351 50.0725 114.105 50.5365C113.86 51.0005 113.484 51.3651 112.977 51.6302C112.47 51.8921 111.822 52.023 111.033 52.023H108.249V50.9093H110.993C111.537 50.9093 111.974 50.8298 112.306 50.6707C112.641 50.5116 112.882 50.2862 113.032 49.9946C113.184 49.6996 113.26 49.3483 113.26 48.9406C113.26 48.5329 113.184 48.1766 113.032 47.8717C112.879 47.5668 112.636 47.3314 112.301 47.1657C111.966 46.9967 111.524 46.9122 110.973 46.9122H108.806V56.0002H107.573ZM112.365 51.4264L114.871 56.0002H113.439L110.973 51.4264H112.365ZM119.488 56.1593C118.753 56.1593 118.118 55.9969 117.584 55.6721C117.054 55.344 116.645 54.8866 116.356 54.3C116.071 53.71 115.929 53.0239 115.929 52.2417C115.929 51.4595 116.071 50.7701 116.356 50.1735C116.645 49.5736 117.046 49.1063 117.559 48.7716C118.077 48.4335 118.68 48.2644 119.369 48.2644C119.767 48.2644 120.16 48.3307 120.547 48.4633C120.935 48.5959 121.288 48.8113 121.606 49.1096C121.925 49.4046 122.178 49.7957 122.367 50.2829C122.556 50.7701 122.65 51.37 122.65 52.0826V52.5798H116.764V51.5656H121.457C121.457 51.1347 121.371 50.7502 121.199 50.4122C121.03 50.0741 120.788 49.8073 120.473 49.6117C120.161 49.4162 119.793 49.3184 119.369 49.3184C118.902 49.3184 118.497 49.4344 118.156 49.6664C117.818 49.8951 117.558 50.1934 117.376 50.5613C117.193 50.9292 117.102 51.3236 117.102 51.7446V52.4207C117.102 52.9974 117.202 53.4863 117.4 53.8873C117.603 54.285 117.883 54.5883 118.241 54.7971C118.599 55.0026 119.015 55.1054 119.488 55.1054C119.797 55.1054 120.075 55.0623 120.324 54.9761C120.576 54.8866 120.793 54.754 120.975 54.5784C121.157 54.3994 121.298 54.1773 121.398 53.9122L122.531 54.2304C122.412 54.6148 122.211 54.9529 121.93 55.2446C121.648 55.5329 121.3 55.7583 120.885 55.9207C120.471 56.0798 120.006 56.1593 119.488 56.1593ZM126.682 56.1792C126.198 56.1792 125.759 56.0881 125.365 55.9058C124.97 55.7202 124.657 55.4534 124.425 55.1054C124.193 54.754 124.077 54.3298 124.077 53.8326C124.077 53.3951 124.163 53.0405 124.336 52.7687C124.508 52.4936 124.738 52.2782 125.027 52.1224C125.315 51.9666 125.633 51.8506 125.981 51.7744C126.333 51.6948 126.686 51.6319 127.04 51.5855C127.504 51.5258 127.881 51.4811 128.169 51.4512C128.461 51.4181 128.673 51.3634 128.805 51.2872C128.941 51.2109 129.009 51.0784 129.009 50.8894V50.8497C129.009 50.3591 128.875 49.978 128.606 49.7062C128.341 49.4344 127.939 49.2985 127.398 49.2985C126.838 49.2985 126.399 49.4212 126.081 49.6664C125.763 49.9117 125.539 50.1735 125.41 50.4519L124.296 50.0542C124.495 49.5902 124.76 49.2289 125.091 48.9704C125.426 48.7086 125.791 48.5263 126.185 48.4235C126.583 48.3175 126.974 48.2644 127.358 48.2644C127.604 48.2644 127.885 48.2943 128.204 48.3539C128.525 48.4103 128.835 48.5279 129.133 48.7069C129.435 48.8859 129.685 49.156 129.884 49.5173C130.083 49.8786 130.182 50.3625 130.182 50.969V56.0002H129.009V54.9662H128.949C128.87 55.1319 128.737 55.3092 128.552 55.4981C128.366 55.687 128.119 55.8478 127.811 55.9804C127.503 56.1129 127.126 56.1792 126.682 56.1792ZM126.861 55.1252C127.325 55.1252 127.716 55.0341 128.035 54.8518C128.356 54.6695 128.598 54.4342 128.76 54.1458C128.926 53.8575 129.009 53.5542 129.009 53.236V52.1622C128.959 52.2218 128.85 52.2765 128.681 52.3262C128.515 52.3726 128.323 52.4141 128.104 52.4505C127.889 52.4837 127.678 52.5135 127.473 52.54C127.271 52.5632 127.107 52.5831 126.981 52.5997C126.676 52.6394 126.391 52.7041 126.126 52.7936C125.864 52.8797 125.652 53.0107 125.489 53.1863C125.33 53.3587 125.251 53.594 125.251 53.8923C125.251 54.3 125.401 54.6082 125.703 54.817C126.008 55.0225 126.394 55.1252 126.861 55.1252ZM135.426 56.1593C134.71 56.1593 134.094 55.9903 133.577 55.6522C133.06 55.3142 132.662 54.8485 132.384 54.2552C132.105 53.6619 131.966 52.9841 131.966 52.2218C131.966 51.4463 132.108 50.7618 132.393 50.1686C132.682 49.572 133.083 49.1063 133.597 48.7716C134.114 48.4335 134.717 48.2644 135.406 48.2644C135.943 48.2644 136.427 48.3639 136.858 48.5627C137.289 48.7616 137.642 49.04 137.917 49.398C138.192 49.7559 138.363 50.1735 138.429 50.6508H137.256C137.166 50.3028 136.967 49.9946 136.659 49.7261C136.354 49.4543 135.943 49.3184 135.426 49.3184C134.969 49.3184 134.568 49.4377 134.223 49.6764C133.882 49.9117 133.615 50.2448 133.423 50.6757C133.234 51.1032 133.139 51.6054 133.139 52.1821C133.139 52.772 133.232 53.2858 133.418 53.7233C133.607 54.1608 133.872 54.5005 134.213 54.7424C134.558 54.9844 134.962 55.1054 135.426 55.1054C135.731 55.1054 136.008 55.0523 136.256 54.9463C136.505 54.8402 136.715 54.6877 136.888 54.4889C137.06 54.29 137.183 54.0514 137.256 53.773H138.429C138.363 54.2237 138.199 54.6297 137.937 54.991C137.678 55.349 137.335 55.634 136.908 55.8461C136.483 56.0549 135.99 56.1593 135.426 56.1593ZM143.465 48.3639V49.3582H139.508V48.3639H143.465ZM140.661 46.5343H141.835V53.8127C141.835 54.1442 141.883 54.3928 141.979 54.5585C142.078 54.7209 142.204 54.8303 142.357 54.8866C142.512 54.9396 142.676 54.9662 142.849 54.9662C142.978 54.9662 143.084 54.9595 143.167 54.9463C143.25 54.9297 143.316 54.9164 143.366 54.9065L143.604 55.9605C143.525 55.9903 143.414 56.0201 143.271 56.05C143.129 56.0831 142.948 56.0997 142.729 56.0997C142.398 56.0997 142.073 56.0284 141.755 55.8859C141.44 55.7434 141.178 55.5263 140.969 55.2346C140.764 54.943 140.661 54.5751 140.661 54.1309V46.5343ZM149.327 56.0002V45.8184H155.432V46.9122H150.56V50.3525H154.974V51.4463H150.56V56.0002H149.327ZM157.302 56.0002V48.3639H158.436V49.5173H158.515C158.655 49.1394 158.907 48.8329 159.271 48.5975C159.636 48.3622 160.047 48.2446 160.504 48.2446C160.59 48.2446 160.698 48.2462 160.827 48.2495C160.956 48.2528 161.054 48.2578 161.121 48.2644V49.4576C161.081 49.4477 160.99 49.4328 160.847 49.4129C160.708 49.3897 160.56 49.3781 160.405 49.3781C160.033 49.3781 159.702 49.456 159.41 49.6117C159.122 49.7642 158.893 49.9763 158.724 50.2481C158.559 50.5166 158.476 50.8232 158.476 51.1679V56.0002H157.302ZM164.759 56.1792C164.275 56.1792 163.835 56.0881 163.441 55.9058C163.047 55.7202 162.733 55.4534 162.501 55.1054C162.269 54.754 162.153 54.3298 162.153 53.8326C162.153 53.3951 162.24 53.0405 162.412 52.7687C162.584 52.4936 162.815 52.2782 163.103 52.1224C163.391 51.9666 163.71 51.8506 164.058 51.7744C164.409 51.6948 164.762 51.6319 165.116 51.5855C165.58 51.5258 165.957 51.4811 166.245 51.4512C166.537 51.4181 166.749 51.3634 166.881 51.2872C167.017 51.2109 167.085 51.0784 167.085 50.8894V50.8497C167.085 50.3591 166.951 49.978 166.683 49.7062C166.417 49.4344 166.015 49.2985 165.474 49.2985C164.914 49.2985 164.475 49.4212 164.157 49.6664C163.839 49.9117 163.615 50.1735 163.486 50.4519L162.372 50.0542C162.571 49.5902 162.836 49.2289 163.168 48.9704C163.502 48.7086 163.867 48.5263 164.261 48.4235C164.659 48.3175 165.05 48.2644 165.435 48.2644C165.68 48.2644 165.962 48.2943 166.28 48.3539C166.601 48.4103 166.911 48.5279 167.21 48.7069C167.511 48.8859 167.761 49.156 167.96 49.5173C168.159 49.8786 168.259 50.3625 168.259 50.969V56.0002H167.085V54.9662H167.026C166.946 55.1319 166.813 55.3092 166.628 55.4981C166.442 55.687 166.195 55.8478 165.887 55.9804C165.579 56.1129 165.203 56.1792 164.759 56.1792ZM164.938 55.1252C165.402 55.1252 165.793 55.0341 166.111 54.8518C166.432 54.6695 166.674 54.4342 166.837 54.1458C167.002 53.8575 167.085 53.5542 167.085 53.236V52.1622C167.036 52.2218 166.926 52.2765 166.757 52.3262C166.591 52.3726 166.399 52.4141 166.18 52.4505C165.965 52.4837 165.754 52.5135 165.549 52.54C165.347 52.5632 165.183 52.5831 165.057 52.5997C164.752 52.6394 164.467 52.7041 164.202 52.7936C163.94 52.8797 163.728 53.0107 163.565 53.1863C163.406 53.3587 163.327 53.594 163.327 53.8923C163.327 54.3 163.478 54.6082 163.779 54.817C164.084 55.0225 164.47 55.1252 164.938 55.1252ZM170.4 56.0002V48.3639H171.534V49.5571H171.633C171.792 49.1494 172.049 48.8329 172.404 48.6075C172.758 48.3788 173.184 48.2644 173.681 48.2644C174.185 48.2644 174.604 48.3788 174.939 48.6075C175.277 48.8329 175.541 49.1494 175.73 49.5571H175.809C176.005 49.1626 176.298 48.8494 176.689 48.6174C177.08 48.3821 177.549 48.2644 178.096 48.2644C178.779 48.2644 179.337 48.4782 179.771 48.9058C180.206 49.33 180.423 49.9912 180.423 50.8894V56.0002H179.249V50.8894C179.249 50.326 179.095 49.9233 178.787 49.6814C178.479 49.4394 178.116 49.3184 177.698 49.3184C177.161 49.3184 176.745 49.4808 176.45 49.8056C176.155 50.1271 176.008 50.5348 176.008 51.0287V56.0002H174.815V50.7701C174.815 50.3359 174.674 49.9863 174.392 49.7211C174.11 49.4527 173.748 49.3184 173.303 49.3184C172.999 49.3184 172.713 49.3996 172.448 49.562C172.186 49.7244 171.974 49.9498 171.812 50.2382C171.653 50.5232 171.573 50.853 171.573 51.2275V56.0002H170.4ZM185.77 56.1593C185.034 56.1593 184.399 55.9969 183.866 55.6721C183.335 55.344 182.926 54.8866 182.638 54.3C182.353 53.71 182.21 53.0239 182.21 52.2417C182.21 51.4595 182.353 50.7701 182.638 50.1735C182.926 49.5736 183.327 49.1063 183.841 48.7716C184.358 48.4335 184.961 48.2644 185.65 48.2644C186.048 48.2644 186.441 48.3307 186.829 48.4633C187.216 48.5959 187.569 48.8113 187.888 49.1096C188.206 49.4046 188.459 49.7957 188.648 50.2829C188.837 50.7701 188.932 51.37 188.932 52.0826V52.5798H183.045V51.5656H187.738C187.738 51.1347 187.652 50.7502 187.48 50.4122C187.311 50.0741 187.069 49.8073 186.754 49.6117C186.443 49.4162 186.075 49.3184 185.65 49.3184C185.183 49.3184 184.779 49.4344 184.437 49.6664C184.099 49.8951 183.839 50.1934 183.657 50.5613C183.474 50.9292 183.383 51.3236 183.383 51.7446V52.4207C183.383 52.9974 183.483 53.4863 183.682 53.8873C183.884 54.285 184.164 54.5883 184.522 54.7971C184.88 55.0026 185.296 55.1054 185.77 55.1054C186.078 55.1054 186.356 55.0623 186.605 54.9761C186.857 54.8866 187.074 54.754 187.256 54.5784C187.439 54.3994 187.579 54.1773 187.679 53.9122L188.812 54.2304C188.693 54.6148 188.492 54.9529 188.211 55.2446C187.929 55.5329 187.581 55.7583 187.167 55.9207C186.752 56.0798 186.287 56.1593 185.77 56.1593ZM192.447 56.0002L190.12 48.3639H191.353L193.003 54.2105H193.083L194.714 48.3639H195.966L197.577 54.1906H197.657L199.307 48.3639H200.54L198.214 56.0002H197.06L195.39 50.1338H195.27L193.6 56.0002H192.447ZM204.934 56.1593C204.245 56.1593 203.64 55.9953 203.119 55.6671C202.602 55.339 202.198 54.88 201.906 54.29C201.618 53.7001 201.474 53.0107 201.474 52.2218C201.474 51.4264 201.618 50.732 201.906 50.1387C202.198 49.5455 202.602 49.0848 203.119 48.7566C203.64 48.4285 204.245 48.2644 204.934 48.2644C205.623 48.2644 206.227 48.4285 206.744 48.7566C207.264 49.0848 207.668 49.5455 207.957 50.1387C208.248 50.732 208.394 51.4264 208.394 52.2218C208.394 53.0107 208.248 53.7001 207.957 54.29C207.668 54.88 207.264 55.339 206.744 55.6671C206.227 55.9953 205.623 56.1593 204.934 56.1593ZM204.934 55.1054C205.458 55.1054 205.888 54.9711 206.227 54.7027C206.565 54.4342 206.815 54.0812 206.977 53.6437C207.14 53.2062 207.221 52.7323 207.221 52.2218C207.221 51.7114 207.14 51.2358 206.977 50.795C206.815 50.3542 206.565 49.9979 206.227 49.7261C205.888 49.4543 205.458 49.3184 204.934 49.3184C204.41 49.3184 203.979 49.4543 203.641 49.7261C203.303 49.9979 203.053 50.3542 202.891 50.795C202.728 51.2358 202.647 51.7114 202.647 52.2218C202.647 52.7323 202.728 53.2062 202.891 53.6437C203.053 54.0812 203.303 54.4342 203.641 54.7027C203.979 54.9711 204.41 55.1054 204.934 55.1054ZM210.185 56.0002V48.3639H211.319V49.5173H211.398C211.537 49.1394 211.789 48.8329 212.154 48.5975C212.519 48.3622 212.93 48.2446 213.387 48.2446C213.473 48.2446 213.581 48.2462 213.71 48.2495C213.839 48.2528 213.937 48.2578 214.003 48.2644V49.4576C213.964 49.4477 213.872 49.4328 213.73 49.4129C213.591 49.3897 213.443 49.3781 213.287 49.3781C212.916 49.3781 212.585 49.456 212.293 49.6117C212.005 49.7642 211.776 49.9763 211.607 50.2481C211.441 50.5166 211.358 50.8232 211.358 51.1679V56.0002H210.185ZM216.488 53.2162L216.468 51.7644H216.707L220.048 48.3639H221.499L217.94 51.9633H217.84L216.488 53.2162ZM215.394 56.0002V45.8184H216.567V56.0002H215.394ZM220.246 56.0002L217.263 52.2218L218.099 51.4065L221.738 56.0002H220.246ZM231.322 51.0883V52.1821H226.867V51.0883H231.322ZM240.426 56.1593C239.71 56.1593 239.094 55.9903 238.577 55.6522C238.06 55.3142 237.662 54.8485 237.384 54.2552C237.105 53.6619 236.966 52.9841 236.966 52.2218C236.966 51.4463 237.108 50.7618 237.393 50.1686C237.682 49.572 238.083 49.1063 238.597 48.7716C239.114 48.4335 239.717 48.2644 240.406 48.2644C240.943 48.2644 241.427 48.3639 241.858 48.5627C242.289 48.7616 242.642 49.04 242.917 49.398C243.192 49.7559 243.363 50.1735 243.429 50.6508H242.256C242.166 50.3028 241.967 49.9946 241.659 49.7261C241.354 49.4543 240.943 49.3184 240.426 49.3184C239.969 49.3184 239.568 49.4377 239.223 49.6764C238.882 49.9117 238.615 50.2448 238.423 50.6757C238.234 51.1032 238.139 51.6054 238.139 52.1821C238.139 52.772 238.232 53.2858 238.418 53.7233C238.607 54.1608 238.872 54.5005 239.213 54.7424C239.558 54.9844 239.962 55.1054 240.426 55.1054C240.731 55.1054 241.008 55.0523 241.256 54.9463C241.505 54.8402 241.715 54.6877 241.888 54.4889C242.06 54.29 242.183 54.0514 242.256 53.773H243.429C243.363 54.2237 243.199 54.6297 242.937 54.991C242.678 55.349 242.335 55.634 241.908 55.8461C241.483 56.0549 240.99 56.1593 240.426 56.1593ZM245.144 56.0002V48.3639H246.278V49.5173H246.357C246.496 49.1394 246.748 48.8329 247.113 48.5975C247.478 48.3622 247.888 48.2446 248.346 48.2446C248.432 48.2446 248.54 48.2462 248.669 48.2495C248.798 48.2528 248.896 48.2578 248.962 48.2644V49.4576C248.923 49.4477 248.831 49.4328 248.689 49.4129C248.55 49.3897 248.402 49.3781 248.246 49.3781C247.875 49.3781 247.544 49.456 247.252 49.6117C246.964 49.7642 246.735 49.9763 246.566 50.2481C246.4 50.5166 246.317 50.8232 246.317 51.1679V56.0002H245.144ZM253.322 56.1593C252.587 56.1593 251.952 55.9969 251.418 55.6721C250.888 55.344 250.479 54.8866 250.19 54.3C249.905 53.71 249.763 53.0239 249.763 52.2417C249.763 51.4595 249.905 50.7701 250.19 50.1735C250.479 49.5736 250.88 49.1063 251.393 48.7716C251.911 48.4335 252.514 48.2644 253.203 48.2644C253.601 48.2644 253.994 48.3307 254.381 48.4633C254.769 48.5959 255.122 48.8113 255.44 49.1096C255.759 49.4046 256.012 49.7957 256.201 50.2829C256.39 50.7701 256.484 51.37 256.484 52.0826V52.5798H250.598V51.5656H255.291C255.291 51.1347 255.205 50.7502 255.033 50.4122C254.864 50.0741 254.622 49.8073 254.307 49.6117C253.995 49.4162 253.627 49.3184 253.203 49.3184C252.736 49.3184 252.331 49.4344 251.99 49.6664C251.652 49.8951 251.392 50.1934 251.21 50.5613C251.027 50.9292 250.936 51.3236 250.936 51.7446V52.4207C250.936 52.9974 251.036 53.4863 251.234 53.8873C251.437 54.285 251.717 54.5883 252.075 54.7971C252.433 55.0026 252.848 55.1054 253.322 55.1054C253.631 55.1054 253.909 55.0623 254.158 54.9761C254.41 54.8866 254.627 54.754 254.809 54.5784C254.991 54.3994 255.132 54.1773 255.232 53.9122L256.365 54.2304C256.246 54.6148 256.045 54.9529 255.763 55.2446C255.482 55.5329 255.134 55.7583 254.719 55.9207C254.305 56.0798 253.839 56.1593 253.322 56.1593ZM260.516 56.1792C260.032 56.1792 259.593 56.0881 259.199 55.9058C258.804 55.7202 258.491 55.4534 258.259 55.1054C258.027 54.754 257.911 54.3298 257.911 53.8326C257.911 53.3951 257.997 53.0405 258.17 52.7687C258.342 52.4936 258.572 52.2782 258.861 52.1224C259.149 51.9666 259.467 51.8506 259.815 51.7744C260.167 51.6948 260.52 51.6319 260.874 51.5855C261.338 51.5258 261.714 51.4811 262.003 51.4512C262.295 51.4181 262.507 51.3634 262.639 51.2872C262.775 51.2109 262.843 51.0784 262.843 50.8894V50.8497C262.843 50.3591 262.709 49.978 262.44 49.7062C262.175 49.4344 261.772 49.2985 261.232 49.2985C260.672 49.2985 260.233 49.4212 259.915 49.6664C259.597 49.9117 259.373 50.1735 259.244 50.4519L258.13 50.0542C258.329 49.5902 258.594 49.2289 258.925 48.9704C259.26 48.7086 259.625 48.5263 260.019 48.4235C260.417 48.3175 260.808 48.2644 261.192 48.2644C261.438 48.2644 261.719 48.2943 262.038 48.3539C262.359 48.4103 262.669 48.5279 262.967 48.7069C263.269 48.8859 263.519 49.156 263.718 49.5173C263.917 49.8786 264.016 50.3625 264.016 50.969V56.0002H262.843V54.9662H262.783C262.704 55.1319 262.571 55.3092 262.386 55.4981C262.2 55.687 261.953 55.8478 261.645 55.9804C261.337 56.1129 260.96 56.1792 260.516 56.1792ZM260.695 55.1252C261.159 55.1252 261.55 55.0341 261.869 54.8518C262.19 54.6695 262.432 54.4342 262.594 54.1458C262.76 53.8575 262.843 53.5542 262.843 53.236V52.1622C262.793 52.2218 262.684 52.2765 262.515 52.3262C262.349 52.3726 262.157 52.4141 261.938 52.4505C261.723 52.4837 261.512 52.5135 261.307 52.54C261.105 52.5632 260.941 52.5831 260.815 52.5997C260.51 52.6394 260.225 52.7041 259.96 52.7936C259.698 52.8797 259.486 53.0107 259.323 53.1863C259.164 53.3587 259.085 53.594 259.085 53.8923C259.085 54.3 259.235 54.6082 259.537 54.817C259.842 55.0225 260.228 55.1252 260.695 55.1252ZM269.479 48.3639V49.3582H265.521V48.3639H269.479ZM266.675 46.5343H267.848V53.8127C267.848 54.1442 267.896 54.3928 267.992 54.5585C268.092 54.7209 268.218 54.8303 268.37 54.8866C268.526 54.9396 268.69 54.9662 268.862 54.9662C268.992 54.9662 269.098 54.9595 269.181 54.9463C269.263 54.9297 269.33 54.9164 269.379 54.9065L269.618 55.9605C269.539 55.9903 269.427 56.0201 269.285 56.05C269.142 56.0831 268.962 56.0997 268.743 56.0997C268.412 56.0997 268.087 56.0284 267.769 55.8859C267.454 55.7434 267.192 55.5263 266.983 55.2346C266.778 54.943 266.675 54.5751 266.675 54.1309V46.5343ZM274.363 56.1593C273.628 56.1593 272.993 55.9969 272.459 55.6721C271.929 55.344 271.52 54.8866 271.231 54.3C270.946 53.71 270.804 53.0239 270.804 52.2417C270.804 51.4595 270.946 50.7701 271.231 50.1735C271.52 49.5736 271.921 49.1063 272.434 48.7716C272.952 48.4335 273.555 48.2644 274.244 48.2644C274.642 48.2644 275.035 48.3307 275.422 48.4633C275.81 48.5959 276.163 48.8113 276.481 49.1096C276.8 49.4046 277.053 49.7957 277.242 50.2829C277.431 50.7701 277.525 51.37 277.525 52.0826V52.5798H271.639V51.5656H276.332C276.332 51.1347 276.246 50.7502 276.074 50.4122C275.905 50.0741 275.663 49.8073 275.348 49.6117C275.036 49.4162 274.668 49.3184 274.244 49.3184C273.777 49.3184 273.372 49.4344 273.031 49.6664C272.693 49.8951 272.433 50.1934 272.251 50.5613C272.068 50.9292 271.977 51.3236 271.977 51.7446V52.4207C271.977 52.9974 272.077 53.4863 272.275 53.8873C272.478 54.285 272.758 54.5883 273.116 54.7971C273.474 55.0026 273.89 55.1054 274.363 55.1054C274.672 55.1054 274.95 55.0623 275.199 54.9761C275.451 54.8866 275.668 54.754 275.85 54.5784C276.032 54.3994 276.173 54.1773 276.273 53.9122L277.406 54.2304C277.287 54.6148 277.086 54.9529 276.805 55.2446C276.523 55.5329 276.175 55.7583 275.76 55.9207C275.346 56.0798 274.881 56.1593 274.363 56.1593ZM282.194 56.1593C281.557 56.1593 280.996 55.9986 280.508 55.6771C280.021 55.3523 279.64 54.8949 279.365 54.3049C279.09 53.7117 278.952 53.0107 278.952 52.2019C278.952 51.3999 279.09 50.7038 279.365 50.1139C279.64 49.5239 280.023 49.0682 280.513 48.7467C281.004 48.4252 281.571 48.2644 282.214 48.2644C282.711 48.2644 283.104 48.3473 283.392 48.513C283.684 48.6754 283.906 48.861 284.058 49.0698C284.214 49.2753 284.335 49.4444 284.421 49.5769H284.52V45.8184H285.694V56.0002H284.56V54.8269H284.421C284.335 54.9662 284.212 55.1418 284.053 55.3539C283.894 55.5627 283.667 55.75 283.372 55.9157C283.077 56.0781 282.684 56.1593 282.194 56.1593ZM282.353 55.1054C282.823 55.1054 283.221 54.9827 283.546 54.7375C283.871 54.4889 284.118 54.1458 284.287 53.7083C284.456 53.2675 284.54 52.7588 284.54 52.1821C284.54 51.612 284.457 51.1132 284.292 50.6856C284.126 50.2547 283.881 49.92 283.556 49.6814C283.231 49.4394 282.83 49.3184 282.353 49.3184C281.856 49.3184 281.441 49.446 281.11 49.7012C280.782 49.9531 280.535 50.2962 280.369 50.7304C280.207 51.1612 280.126 51.6451 280.126 52.1821C280.126 52.7256 280.208 53.2195 280.374 53.6636C280.543 54.1044 280.792 54.4557 281.12 54.7176C281.451 54.9761 281.862 55.1054 282.353 55.1054ZM80.321 76.1792C79.8371 76.1792 79.398 76.0881 79.0036 75.9058C78.6091 75.7202 78.2959 75.4534 78.0639 75.1054C77.8319 74.754 77.7159 74.3298 77.7159 73.8326C77.7159 73.3951 77.8021 73.0405 77.9744 72.7687C78.1468 72.4936 78.3771 72.2782 78.6655 72.1224C78.9538 71.9666 79.272 71.8506 79.62 71.7744C79.9714 71.6948 80.3243 71.6319 80.679 71.5855C81.143 71.5258 81.5192 71.4811 81.8075 71.4512C82.0992 71.4181 82.3113 71.3634 82.4439 71.2872C82.5798 71.2109 82.6477 71.0784 82.6477 70.8894V70.8497C82.6477 70.3591 82.5135 69.978 82.245 69.7062C81.9799 69.4344 81.5772 69.2985 81.0369 69.2985C80.4768 69.2985 80.0376 69.4212 79.7195 69.6664C79.4013 69.9117 79.1776 70.1735 79.0483 70.4519L77.9347 70.0542C78.1335 69.5902 78.3987 69.2289 78.7301 68.9704C79.0649 68.7086 79.4295 68.5263 79.8239 68.4235C80.2216 68.3175 80.6127 68.2644 80.9972 68.2644C81.2424 68.2644 81.5241 68.2943 81.8423 68.3539C82.1638 68.4103 82.4737 68.5279 82.772 68.7069C83.0736 68.8859 83.3239 69.156 83.5227 69.5173C83.7216 69.8786 83.821 70.3625 83.821 70.969V76.0002H82.6477V74.9662H82.5881C82.5085 75.1319 82.3759 75.3092 82.1903 75.4981C82.0047 75.687 81.7578 75.8478 81.4496 75.9804C81.1413 76.1129 80.7652 76.1792 80.321 76.1792ZM80.5 75.1252C80.964 75.1252 81.3551 75.0341 81.6733 74.8518C81.9948 74.6695 82.2367 74.4342 82.3991 74.1458C82.5649 73.8575 82.6477 73.5542 82.6477 73.236V72.1622C82.598 72.2218 82.4886 72.2765 82.3196 72.3262C82.1539 72.3726 81.9616 72.4141 81.7429 72.4505C81.5275 72.4837 81.317 72.5135 81.1115 72.54C80.9093 72.5632 80.7453 72.5831 80.6193 72.5997C80.3144 72.6394 80.0294 72.7041 79.7642 72.7936C79.5024 72.8797 79.2902 73.0107 79.1278 73.1863C78.9688 73.3587 78.8892 73.594 78.8892 73.8923C78.8892 74.3 79.04 74.6082 79.3416 74.817C79.6465 75.0225 80.0327 75.1252 80.5 75.1252ZM87.1358 71.4065V76.0002H85.9625V68.3639H87.0961V69.5571H87.1955C87.3745 69.1693 87.6462 68.8577 88.0108 68.6224C88.3754 68.3838 88.8461 68.2644 89.4228 68.2644C89.9398 68.2644 90.3922 68.3705 90.78 68.5826C91.1678 68.7914 91.4694 69.1096 91.6848 69.5372C91.9003 69.9614 92.008 70.4984 92.008 71.148V76.0002H90.8347V71.2275C90.8347 70.6276 90.6789 70.1603 90.3674 69.8255C90.0558 69.4875 89.6283 69.3184 89.0847 69.3184C88.7102 69.3184 88.3754 69.3996 88.0804 69.562C87.7888 69.7244 87.5584 69.9614 87.3894 70.273C87.2203 70.5845 87.1358 70.9624 87.1358 71.4065ZM97.0355 76.1593C96.3991 76.1593 95.8374 75.9986 95.3501 75.6771C94.8629 75.3523 94.4818 74.8949 94.2067 74.3049C93.9316 73.7117 93.794 73.0107 93.794 72.2019C93.794 71.3999 93.9316 70.7038 94.2067 70.1139C94.4818 69.5239 94.8646 69.0682 95.3551 68.7467C95.8456 68.4252 96.4124 68.2644 97.0554 68.2644C97.5526 68.2644 97.9453 68.3473 98.2337 68.513C98.5253 68.6754 98.7474 68.861 98.8999 69.0698C99.0556 69.2753 99.1766 69.4444 99.2628 69.5769H99.3622V65.8184H100.536V76.0002H99.402V74.8269H99.2628C99.1766 74.9662 99.054 75.1418 98.8949 75.3539C98.7358 75.5627 98.5088 75.75 98.2138 75.9157C97.9188 76.0781 97.526 76.1593 97.0355 76.1593ZM97.1946 75.1054C97.6652 75.1054 98.063 74.9827 98.3878 74.7375C98.7126 74.4889 98.9595 74.1458 99.1286 73.7083C99.2976 73.2675 99.3821 72.7588 99.3821 72.1821C99.3821 71.612 99.2992 71.1132 99.1335 70.6856C98.9678 70.2547 98.7225 69.92 98.3977 69.6814C98.0729 69.4394 97.6719 69.3184 97.1946 69.3184C96.6974 69.3184 96.2831 69.446 95.9517 69.7012C95.6236 69.9531 95.3767 70.2962 95.2109 70.7304C95.0485 71.1612 94.9673 71.6451 94.9673 72.1821C94.9673 72.7256 95.0502 73.2195 95.2159 73.6636C95.3849 74.1044 95.6335 74.4557 95.9616 74.7176C96.2931 74.9761 96.7041 75.1054 97.1946 75.1054ZM106.785 76.0002V68.3639H107.918V69.5571H108.018C108.177 69.1494 108.434 68.8329 108.788 68.6075C109.143 68.3788 109.569 68.2644 110.066 68.2644C110.57 68.2644 110.989 68.3788 111.324 68.6075C111.662 68.8329 111.925 69.1494 112.114 69.5571H112.194C112.389 69.1626 112.683 68.8494 113.074 68.6174C113.465 68.3821 113.934 68.2644 114.481 68.2644C115.164 68.2644 115.722 68.4782 116.156 68.9058C116.59 69.33 116.808 69.9912 116.808 70.8894V76.0002H115.634V70.8894C115.634 70.326 115.48 69.9233 115.172 69.6814C114.864 69.4394 114.501 69.3184 114.083 69.3184C113.546 69.3184 113.13 69.4808 112.835 69.8056C112.54 70.1271 112.393 70.5348 112.393 71.0287V76.0002H111.2V70.7701C111.2 70.3359 111.059 69.9863 110.777 69.7211C110.495 69.4527 110.132 69.3184 109.688 69.3184C109.383 69.3184 109.098 69.3996 108.833 69.562C108.571 69.7244 108.359 69.9498 108.197 70.2382C108.038 70.5232 107.958 70.853 107.958 71.2275V76.0002H106.785ZM121.2 76.1792C120.716 76.1792 120.277 76.0881 119.882 75.9058C119.488 75.7202 119.175 75.4534 118.943 75.1054C118.711 74.754 118.595 74.3298 118.595 73.8326C118.595 73.3951 118.681 73.0405 118.853 72.7687C119.026 72.4936 119.256 72.2782 119.544 72.1224C119.833 71.9666 120.151 71.8506 120.499 71.7744C120.85 71.6948 121.203 71.6319 121.558 71.5855C122.022 71.5258 122.398 71.4811 122.686 71.4512C122.978 71.4181 123.19 71.3634 123.323 71.2872C123.459 71.2109 123.527 71.0784 123.527 70.8894V70.8497C123.527 70.3591 123.392 69.978 123.124 69.7062C122.859 69.4344 122.456 69.2985 121.916 69.2985C121.356 69.2985 120.917 69.4212 120.598 69.6664C120.28 69.9117 120.056 70.1735 119.927 70.4519L118.814 70.0542C119.012 69.5902 119.278 69.2289 119.609 68.9704C119.944 68.7086 120.308 68.5263 120.703 68.4235C121.1 68.3175 121.492 68.2644 121.876 68.2644C122.121 68.2644 122.403 68.2943 122.721 68.3539C123.043 68.4103 123.353 68.5279 123.651 68.7069C123.953 68.8859 124.203 69.156 124.402 69.5173C124.6 69.8786 124.7 70.3625 124.7 70.969V76.0002H123.527V74.9662H123.467C123.387 75.1319 123.255 75.3092 123.069 75.4981C122.884 75.687 122.637 75.8478 122.328 75.9804C122.02 76.1129 121.644 76.1792 121.2 76.1792ZM121.379 75.1252C121.843 75.1252 122.234 75.0341 122.552 74.8518C122.874 74.6695 123.116 74.4342 123.278 74.1458C123.444 73.8575 123.527 73.5542 123.527 73.236V72.1622C123.477 72.2218 123.368 72.2765 123.199 72.3262C123.033 72.3726 122.841 72.4141 122.622 72.4505C122.406 72.4837 122.196 72.5135 121.99 72.54C121.788 72.5632 121.624 72.5831 121.498 72.5997C121.193 72.6394 120.908 72.7041 120.643 72.7936C120.381 72.8797 120.169 73.0107 120.007 73.1863C119.848 73.3587 119.768 73.594 119.768 73.8923C119.768 74.3 119.919 74.6082 120.221 74.817C120.525 75.0225 120.912 75.1252 121.379 75.1252ZM126.841 76.0002V68.3639H128.015V76.0002H126.841ZM127.438 67.0912C127.209 67.0912 127.012 67.0133 126.846 66.8575C126.684 66.7017 126.603 66.5144 126.603 66.2957C126.603 66.0769 126.684 65.8897 126.846 65.7339C127.012 65.5781 127.209 65.5002 127.438 65.5002C127.667 65.5002 127.862 65.5781 128.025 65.7339C128.19 65.8897 128.273 66.0769 128.273 66.2957C128.273 66.5144 128.19 66.7017 128.025 66.8575C127.862 67.0133 127.667 67.0912 127.438 67.0912ZM131.337 71.4065V76.0002H130.164V68.3639H131.297V69.5571H131.397C131.576 69.1693 131.847 68.8577 132.212 68.6224C132.577 68.3838 133.047 68.2644 133.624 68.2644C134.141 68.2644 134.593 68.3705 134.981 68.5826C135.369 68.7914 135.671 69.1096 135.886 69.5372C136.101 69.9614 136.209 70.4984 136.209 71.148V76.0002H135.036V71.2275C135.036 70.6276 134.88 70.1603 134.569 69.8255C134.257 69.4875 133.829 69.3184 133.286 69.3184C132.911 69.3184 132.577 69.3996 132.282 69.562C131.99 69.7244 131.76 69.9614 131.591 70.273C131.422 70.5845 131.337 70.9624 131.337 71.4065ZM141.674 68.3639V69.3582H137.717V68.3639H141.674ZM138.87 66.5343H140.044V73.8127C140.044 74.1442 140.092 74.3928 140.188 74.5585C140.287 74.7209 140.413 74.8303 140.566 74.8866C140.721 74.9396 140.885 74.9662 141.058 74.9662C141.187 74.9662 141.293 74.9595 141.376 74.9463C141.459 74.9297 141.525 74.9164 141.575 74.9065L141.813 75.9605C141.734 75.9903 141.623 76.0201 141.48 76.05C141.338 76.0831 141.157 76.0997 140.938 76.0997C140.607 76.0997 140.282 76.0284 139.964 75.8859C139.649 75.7434 139.387 75.5263 139.178 75.2346C138.973 74.943 138.87 74.5751 138.87 74.1309V66.5343ZM145.686 76.1792C145.202 76.1792 144.763 76.0881 144.369 75.9058C143.974 75.7202 143.661 75.4534 143.429 75.1054C143.197 74.754 143.081 74.3298 143.081 73.8326C143.081 73.3951 143.167 73.0405 143.34 72.7687C143.512 72.4936 143.742 72.2782 144.031 72.1224C144.319 71.9666 144.637 71.8506 144.985 71.7744C145.337 71.6948 145.69 71.6319 146.044 71.5855C146.508 71.5258 146.884 71.4811 147.173 71.4512C147.464 71.4181 147.677 71.3634 147.809 71.2872C147.945 71.2109 148.013 71.0784 148.013 70.8894V70.8497C148.013 70.3591 147.879 69.978 147.61 69.7062C147.345 69.4344 146.942 69.2985 146.402 69.2985C145.842 69.2985 145.403 69.4212 145.085 69.6664C144.767 69.9117 144.543 70.1735 144.414 70.4519L143.3 70.0542C143.499 69.5902 143.764 69.2289 144.095 68.9704C144.43 68.7086 144.795 68.5263 145.189 68.4235C145.587 68.3175 145.978 68.2644 146.362 68.2644C146.608 68.2644 146.889 68.2943 147.208 68.3539C147.529 68.4103 147.839 68.5279 148.137 68.7069C148.439 68.8859 148.689 69.156 148.888 69.5173C149.087 69.8786 149.186 70.3625 149.186 70.969V76.0002H148.013V74.9662H147.953C147.874 75.1319 147.741 75.3092 147.556 75.4981C147.37 75.687 147.123 75.8478 146.815 75.9804C146.507 76.1129 146.13 76.1792 145.686 76.1792ZM145.865 75.1252C146.329 75.1252 146.72 75.0341 147.039 74.8518C147.36 74.6695 147.602 74.4342 147.764 74.1458C147.93 73.8575 148.013 73.5542 148.013 73.236V72.1622C147.963 72.2218 147.854 72.2765 147.685 72.3262C147.519 72.3726 147.327 72.4141 147.108 72.4505C146.893 72.4837 146.682 72.5135 146.477 72.54C146.275 72.5632 146.11 72.5831 145.985 72.5997C145.68 72.6394 145.395 72.7041 145.129 72.7936C144.868 72.8797 144.655 73.0107 144.493 73.1863C144.334 73.3587 144.254 73.594 144.254 73.8923C144.254 74.3 144.405 74.6082 144.707 74.817C145.012 75.0225 145.398 75.1252 145.865 75.1252ZM151.328 76.0002V68.3639H152.501V76.0002H151.328ZM151.924 67.0912C151.696 67.0912 151.498 67.0133 151.333 66.8575C151.17 66.7017 151.089 66.5144 151.089 66.2957C151.089 66.0769 151.17 65.8897 151.333 65.7339C151.498 65.5781 151.696 65.5002 151.924 65.5002C152.153 65.5002 152.349 65.5781 152.511 65.7339C152.677 65.8897 152.76 66.0769 152.76 66.2957C152.76 66.5144 152.677 66.7017 152.511 66.8575C152.349 67.0133 152.153 67.0912 151.924 67.0912ZM155.823 71.4065V76.0002H154.65V68.3639H155.784V69.5571H155.883C156.062 69.1693 156.334 68.8577 156.698 68.6224C157.063 68.3838 157.534 68.2644 158.11 68.2644C158.627 68.2644 159.08 68.3705 159.468 68.5826C159.855 68.7914 160.157 69.1096 160.372 69.5372C160.588 69.9614 160.695 70.4984 160.695 71.148V76.0002H159.522V71.2275C159.522 70.6276 159.366 70.1603 159.055 69.8255C158.743 69.4875 158.316 69.3184 157.772 69.3184C157.398 69.3184 157.063 69.3996 156.768 69.562C156.476 69.7244 156.246 69.9614 156.077 70.273C155.908 70.5845 155.823 70.9624 155.823 71.4065ZM166.041 76.1593C165.305 76.1593 164.671 75.9969 164.137 75.6721C163.607 75.344 163.197 74.8866 162.909 74.3C162.624 73.71 162.482 73.0239 162.482 72.2417C162.482 71.4595 162.624 70.7701 162.909 70.1735C163.197 69.5736 163.598 69.1063 164.112 68.7716C164.629 68.4335 165.232 68.2644 165.922 68.2644C166.32 68.2644 166.712 68.3307 167.1 68.4633C167.488 68.5959 167.841 68.8113 168.159 69.1096C168.477 69.4046 168.731 69.7957 168.92 70.2829C169.109 70.7701 169.203 71.37 169.203 72.0826V72.5798H163.317V71.5656H168.01C168.01 71.1347 167.924 70.7502 167.751 70.4122C167.582 70.0741 167.34 69.8073 167.026 69.6117C166.714 69.4162 166.346 69.3184 165.922 69.3184C165.455 69.3184 165.05 69.4344 164.709 69.6664C164.371 69.8951 164.111 70.1934 163.928 70.5613C163.746 70.9292 163.655 71.3236 163.655 71.7446V72.4207C163.655 72.9974 163.754 73.4863 163.953 73.8873C164.155 74.285 164.435 74.5883 164.793 74.7971C165.151 75.0026 165.567 75.1054 166.041 75.1054C166.349 75.1054 166.628 75.0623 166.876 74.9761C167.128 74.8866 167.345 74.754 167.528 74.5784C167.71 74.3994 167.851 74.1773 167.95 73.9122L169.084 74.2304C168.964 74.6148 168.764 74.9529 168.482 75.2446C168.201 75.5329 167.853 75.7583 167.438 75.9207C167.024 76.0798 166.558 76.1593 166.041 76.1593ZM173.871 76.1593C173.235 76.1593 172.673 75.9986 172.186 75.6771C171.699 75.3523 171.318 74.8949 171.043 74.3049C170.768 73.7117 170.63 73.0107 170.63 72.2019C170.63 71.3999 170.768 70.7038 171.043 70.1139C171.318 69.5239 171.701 69.0682 172.191 68.7467C172.682 68.4252 173.248 68.2644 173.891 68.2644C174.388 68.2644 174.781 68.3473 175.07 68.513C175.361 68.6754 175.583 68.861 175.736 69.0698C175.892 69.2753 176.013 69.4444 176.099 69.5769H176.198V65.8184H177.371V76.0002H176.238V74.8269H176.099C176.013 74.9662 175.89 75.1418 175.731 75.3539C175.572 75.5627 175.345 75.75 175.05 75.9157C174.755 76.0781 174.362 76.1593 173.871 76.1593ZM174.031 75.1054C174.501 75.1054 174.899 74.9827 175.224 74.7375C175.549 74.4889 175.795 74.1458 175.964 73.7083C176.134 73.2675 176.218 72.7588 176.218 72.1821C176.218 71.612 176.135 71.1132 175.969 70.6856C175.804 70.2547 175.558 69.92 175.234 69.6814C174.909 69.4394 174.508 69.3184 174.031 69.3184C173.533 69.3184 173.119 69.446 172.788 69.7012C172.46 69.9531 172.213 70.2962 172.047 70.7304C171.884 71.1612 171.803 71.6451 171.803 72.1821C171.803 72.7256 171.886 73.2195 172.052 73.6636C172.221 74.1044 172.469 74.4557 172.798 74.7176C173.129 74.9761 173.54 75.1054 174.031 75.1054ZM183.78 76.0002V65.8184H184.953V69.5769H185.053C185.139 69.4444 185.258 69.2753 185.411 69.0698C185.566 68.861 185.788 68.6754 186.077 68.513C186.368 68.3473 186.763 68.2644 187.26 68.2644C187.903 68.2644 188.47 68.4252 188.96 68.7467C189.451 69.0682 189.834 69.5239 190.109 70.1139C190.384 70.7038 190.521 71.3999 190.521 72.2019C190.521 73.0107 190.384 73.7117 190.109 74.3049C189.834 74.8949 189.452 75.3523 188.965 75.6771C188.478 75.9986 187.916 76.1593 187.28 76.1593C186.789 76.1593 186.397 76.0781 186.102 75.9157C185.807 75.75 185.58 75.5627 185.42 75.3539C185.261 75.1418 185.139 74.9662 185.053 74.8269H184.913V76.0002H183.78ZM184.933 72.1821C184.933 72.7588 185.018 73.2675 185.187 73.7083C185.356 74.1458 185.603 74.4889 185.928 74.7375C186.252 74.9827 186.65 75.1054 187.121 75.1054C187.611 75.1054 188.021 74.9761 188.349 74.7176C188.68 74.4557 188.929 74.1044 189.094 73.6636C189.263 73.2195 189.348 72.7256 189.348 72.1821C189.348 71.6451 189.265 71.1612 189.099 70.7304C188.937 70.2962 188.69 69.9531 188.359 69.7012C188.031 69.446 187.618 69.3184 187.121 69.3184C186.643 69.3184 186.242 69.4394 185.918 69.6814C185.593 69.92 185.348 70.2547 185.182 70.6856C185.016 71.1132 184.933 71.612 184.933 72.1821ZM192.798 78.8639C192.599 78.8639 192.422 78.8473 192.266 78.8142C192.111 78.7843 192.003 78.7545 191.943 78.7247L192.241 77.6906C192.527 77.7635 192.778 77.79 192.997 77.7701C193.216 77.7502 193.41 77.6525 193.579 77.4768C193.751 77.3045 193.909 77.0244 194.051 76.6366L194.27 76.04L191.446 68.3639H192.719L194.827 74.4491H194.906L197.014 68.3639H198.287L195.045 77.1139C194.9 77.5083 194.719 77.8348 194.504 78.0933C194.288 78.3551 194.038 78.549 193.753 78.675C193.471 78.8009 193.153 78.8639 192.798 78.8639ZM209.64 78.6849C208.625 78.6849 207.729 78.5457 206.95 78.2673C206.171 77.9922 205.516 77.5862 204.986 77.0492C204.456 76.5123 204.055 75.8544 203.783 75.0755C203.511 74.2966 203.375 73.4051 203.375 72.4008C203.375 71.4297 203.513 70.5613 203.788 69.7957C204.066 69.0301 204.469 68.3805 204.996 67.8468C205.526 67.3099 206.169 66.9006 206.925 66.6189C207.684 66.3371 208.542 66.1963 209.5 66.1963C210.432 66.1963 211.247 66.3487 211.946 66.6537C212.649 66.9553 213.236 67.3646 213.706 67.8816C214.18 68.3954 214.535 68.9737 214.77 69.6167C215.009 70.2597 215.128 70.9226 215.128 71.6054C215.128 72.0859 215.105 72.5732 215.059 73.067C215.012 73.5609 214.914 74.0149 214.765 74.4292C214.616 74.8402 214.386 75.1716 214.074 75.4235C213.766 75.6754 213.348 75.8014 212.821 75.8014C212.589 75.8014 212.334 75.7649 212.056 75.692C211.777 75.6191 211.53 75.4981 211.315 75.3291C211.1 75.16 210.972 74.933 210.932 74.648H210.873C210.793 74.8402 210.67 75.0225 210.505 75.1948C210.342 75.3672 210.128 75.5047 209.863 75.6075C209.601 75.7102 209.282 75.755 208.904 75.7417C208.473 75.7251 208.093 75.629 207.765 75.4534C207.437 75.2744 207.162 75.0324 206.94 74.7275C206.721 74.4193 206.556 74.063 206.443 73.6586C206.333 73.251 206.279 72.8118 206.279 72.3412C206.279 71.8937 206.345 71.4844 206.478 71.1132C206.61 70.742 206.794 70.4171 207.029 70.1387C207.268 69.8603 207.547 69.6383 207.865 69.4725C208.186 69.3035 208.533 69.1991 208.904 69.1593C209.235 69.1262 209.537 69.1411 209.809 69.2041C210.08 69.2637 210.304 69.3549 210.48 69.4775C210.655 69.5968 210.766 69.7294 210.813 69.8752H210.873V69.3184H211.926V73.8127C211.926 74.0912 212.004 74.3364 212.16 74.5485C212.316 74.7607 212.543 74.8667 212.841 74.8667C213.179 74.8667 213.438 74.7507 213.617 74.5187C213.799 74.2867 213.923 73.9287 213.99 73.4448C214.059 72.9609 214.094 72.3412 214.094 71.5855C214.094 71.1413 214.033 70.7038 213.91 70.273C213.791 69.8388 213.609 69.4328 213.363 69.0549C213.121 68.6771 212.815 68.344 212.444 68.0556C212.072 67.7673 211.636 67.5419 211.136 67.3795C210.639 67.2138 210.074 67.1309 209.441 67.1309C208.662 67.1309 207.964 67.2519 207.348 67.4939C206.734 67.7325 206.212 68.0822 205.782 68.5429C205.354 69.0002 205.028 69.5571 204.802 70.2133C204.58 70.8662 204.469 71.6087 204.469 72.4406C204.469 73.2858 204.58 74.0365 204.802 74.6927C205.028 75.349 205.359 75.9025 205.797 76.3532C206.237 76.804 206.783 77.1454 207.432 77.3774C208.082 77.6127 208.831 77.7304 209.679 77.7304C210.044 77.7304 210.404 77.6956 210.758 77.626C211.113 77.5564 211.426 77.4801 211.698 77.3973C211.97 77.3144 212.165 77.2531 212.284 77.2133L212.563 78.1281C212.357 78.2143 212.089 78.3004 211.757 78.3866C211.429 78.4728 211.078 78.544 210.703 78.6004C210.332 78.6567 209.978 78.6849 209.64 78.6849ZM209.063 74.7275C209.507 74.7275 209.867 74.638 210.142 74.4591C210.417 74.2801 210.617 74.01 210.743 73.6487C210.869 73.2874 210.932 72.8317 210.932 72.2815C210.932 71.7247 210.863 71.2905 210.723 70.9789C210.584 70.6674 210.379 70.4486 210.107 70.3227C209.835 70.1967 209.5 70.1338 209.103 70.1338C208.725 70.1338 208.402 70.2332 208.133 70.4321C207.868 70.6276 207.664 70.8894 207.522 71.2176C207.382 71.5424 207.313 71.897 207.313 72.2815C207.313 72.7057 207.369 73.1051 207.482 73.4796C207.595 73.8509 207.779 74.1525 208.034 74.3845C208.289 74.6132 208.632 74.7275 209.063 74.7275ZM223.129 68.3639L220.305 76.0002H219.112L216.288 68.3639H217.561L219.669 74.4491H219.748L221.856 68.3639H223.129ZM227.606 76.1593C226.87 76.1593 226.235 75.9969 225.702 75.6721C225.171 75.344 224.762 74.8866 224.474 74.3C224.189 73.71 224.046 73.0239 224.046 72.2417C224.046 71.4595 224.189 70.7701 224.474 70.1735C224.762 69.5736 225.163 69.1063 225.677 68.7716C226.194 68.4335 226.797 68.2644 227.486 68.2644C227.884 68.2644 228.277 68.3307 228.665 68.4633C229.052 68.5959 229.405 68.8113 229.724 69.1096C230.042 69.4046 230.295 69.7957 230.484 70.2829C230.673 70.7701 230.768 71.37 230.768 72.0826V72.5798H224.881V71.5656H229.574C229.574 71.1347 229.488 70.7502 229.316 70.4122C229.147 70.0741 228.905 69.8073 228.59 69.6117C228.278 69.4162 227.911 69.3184 227.486 69.3184C227.019 69.3184 226.615 69.4344 226.273 69.6664C225.935 69.8951 225.675 70.1934 225.493 70.5613C225.31 70.9292 225.219 71.3236 225.219 71.7446V72.4207C225.219 72.9974 225.319 73.4863 225.518 73.8873C225.72 74.285 226 74.5883 226.358 74.7971C226.716 75.0026 227.132 75.1054 227.606 75.1054C227.914 75.1054 228.192 75.0623 228.441 74.9761C228.693 74.8866 228.91 74.754 229.092 74.5784C229.274 74.3994 229.415 74.1773 229.515 73.9122L230.648 74.2304C230.529 74.6148 230.328 74.9529 230.047 75.2446C229.765 75.5329 229.417 75.7583 229.003 75.9207C228.588 76.0798 228.123 76.1593 227.606 76.1593ZM232.552 76.0002V68.3639H233.686V69.5173H233.765C233.905 69.1394 234.157 68.8329 234.521 68.5975C234.886 68.3622 235.297 68.2446 235.754 68.2446C235.84 68.2446 235.948 68.2462 236.077 68.2495C236.206 68.2528 236.304 68.2578 236.371 68.2644V69.4576C236.331 69.4477 236.24 69.4328 236.097 69.4129C235.958 69.3897 235.81 69.3781 235.655 69.3781C235.283 69.3781 234.952 69.456 234.66 69.6117C234.372 69.7642 234.143 69.9763 233.974 70.2481C233.809 70.5166 233.726 70.8232 233.726 71.1679V76.0002H232.552ZM240.631 76.1593C239.915 76.1593 239.299 75.9903 238.782 75.6522C238.265 75.3142 237.867 74.8485 237.589 74.2552C237.31 73.6619 237.171 72.9841 237.171 72.2218C237.171 71.4463 237.314 70.7618 237.599 70.1686C237.887 69.572 238.288 69.1063 238.802 68.7716C239.319 68.4335 239.922 68.2644 240.611 68.2644C241.148 68.2644 241.632 68.3639 242.063 68.5627C242.494 68.7616 242.847 69.04 243.122 69.398C243.397 69.7559 243.568 70.1735 243.634 70.6508H242.461C242.371 70.3028 242.172 69.9946 241.864 69.7261C241.559 69.4543 241.148 69.3184 240.631 69.3184C240.174 69.3184 239.773 69.4377 239.428 69.6764C239.087 69.9117 238.82 70.2448 238.628 70.6757C238.439 71.1032 238.344 71.6054 238.344 72.1821C238.344 72.772 238.437 73.2858 238.623 73.7233C238.812 74.1608 239.077 74.5005 239.418 74.7424C239.763 74.9844 240.167 75.1054 240.631 75.1054C240.936 75.1054 241.213 75.0523 241.461 74.9463C241.71 74.8402 241.921 74.6877 242.093 74.4889C242.265 74.29 242.388 74.0514 242.461 73.773H243.634C243.568 74.2237 243.404 74.6297 243.142 74.991C242.883 75.349 242.54 75.634 242.113 75.8461C241.689 76.0549 241.195 76.1593 240.631 76.1593ZM248.551 76.1593C247.815 76.1593 247.18 75.9969 246.647 75.6721C246.117 75.344 245.707 74.8866 245.419 74.3C245.134 73.71 244.991 73.0239 244.991 72.2417C244.991 71.4595 245.134 70.7701 245.419 70.1735C245.707 69.5736 246.108 69.1063 246.622 68.7716C247.139 68.4335 247.742 68.2644 248.432 68.2644C248.829 68.2644 249.222 68.3307 249.61 68.4633C249.998 68.5959 250.351 68.8113 250.669 69.1096C250.987 69.4046 251.241 69.7957 251.43 70.2829C251.618 70.7701 251.713 71.37 251.713 72.0826V72.5798H245.827V71.5656H250.52C250.52 71.1347 250.434 70.7502 250.261 70.4122C250.092 70.0741 249.85 69.8073 249.535 69.6117C249.224 69.4162 248.856 69.3184 248.432 69.3184C247.964 69.3184 247.56 69.4344 247.219 69.6664C246.881 69.8951 246.62 70.1934 246.438 70.5613C246.256 70.9292 246.165 71.3236 246.165 71.7446V72.4207C246.165 72.9974 246.264 73.4863 246.463 73.8873C246.665 74.285 246.945 74.5883 247.303 74.7971C247.661 75.0026 248.077 75.1054 248.551 75.1054C248.859 75.1054 249.138 75.0623 249.386 74.9761C249.638 74.8866 249.855 74.754 250.037 74.5784C250.22 74.3994 250.361 74.1773 250.46 73.9122L251.594 74.2304C251.474 74.6148 251.274 74.9529 250.992 75.2446C250.71 75.5329 250.362 75.7583 249.948 75.9207C249.534 76.0798 249.068 76.1593 248.551 76.1593ZM254.671 65.8184V76.0002H253.498V65.8184H254.671Z" fill="#0F172A"/>
<g clip-path="url(#clip0_4_462)">
<path d="M89.6667 87.667H80.3333C79.597 87.667 79 88.2639 79 89.0003V98.3337C79 99.07 79.597 99.667 80.3333 99.667H89.6667C90.403 99.667 91 99.07 91 98.3337V89.0003C91 88.2639 90.403 87.667 89.6667 87.667Z" stroke="#64748B" stroke-width="1.33333" stroke-linecap="round" stroke-linejoin="round"/>
<path d="M87.6665 86.3335V89.0002" stroke="#64748B" stroke-width="1.33333" stroke-linecap="round" stroke-linejoin="round"/>
<path d="M82.3335 86.3335V89.0002" stroke="#64748B" stroke-width="1.33333" stroke-linecap="round" stroke-linejoin="round"/>


<path d="M87.6665 97.0002H87.6765" stroke="#64748B" stroke-width="1.33333" stroke-linecap="round" stroke-linejoin="round"/>
</g>
<path d="M101.398 88.273H102.455V94.5116C102.455 95.0684 102.352 95.5414 102.148 95.9306C101.943 96.3198 101.655 96.6153 101.283 96.817C100.911 97.0187 100.472 97.1196 99.9659 97.1196C99.4886 97.1196 99.0639 97.0329 98.6918 96.8596C98.3196 96.6835 98.027 96.4335 97.8139 96.1096C97.6009 95.7858 97.4943 95.4008 97.4943 94.9548H98.5341C98.5341 95.2019 98.5952 95.4179 98.7173 95.6025C98.8423 95.7843 99.0128 95.9264 99.2287 96.0287C99.4446 96.1309 99.6903 96.1821 99.9659 96.1821C100.27 96.1821 100.528 96.1181 100.741 95.9903C100.955 95.8625 101.116 95.675 101.227 95.4278C101.341 95.1778 101.398 94.8724 101.398 94.5116V88.273ZM107.095 97.1366C106.504 97.1366 105.986 96.996 105.54 96.7147C105.097 96.4335 104.75 96.04 104.5 95.5343C104.253 95.0287 104.129 94.4377 104.129 93.7616C104.129 93.0798 104.253 92.4846 104.5 91.9761C104.75 91.4676 105.097 91.0727 105.54 90.7914C105.986 90.5102 106.504 90.3696 107.095 90.3696C107.686 90.3696 108.203 90.5102 108.646 90.7914C109.092 91.0727 109.439 91.4676 109.686 91.9761C109.936 92.4846 110.061 93.0798 110.061 93.7616C110.061 94.4377 109.936 95.0287 109.686 95.5343C109.439 96.04 109.092 96.4335 108.646 96.7147C108.203 96.996 107.686 97.1366 107.095 97.1366ZM107.095 96.2332C107.544 96.2332 107.913 96.1181 108.203 95.888C108.493 95.6579 108.707 95.3554 108.847 94.9804C108.986 94.6054 109.055 94.1991 109.055 93.7616C109.055 93.3241 108.986 92.9164 108.847 92.5386C108.707 92.1608 108.493 91.8554 108.203 91.6224C107.913 91.3894 107.544 91.273 107.095 91.273C106.646 91.273 106.277 91.3894 105.987 91.6224C105.697 91.8554 105.483 92.1608 105.344 92.5386C105.205 92.9164 105.135 93.3241 105.135 93.7616C105.135 94.1991 105.205 94.6054 105.344 94.9804C105.483 95.3554 105.697 95.6579 105.987 95.888C106.277 96.1181 106.646 96.2332 107.095 96.2332ZM111.596 97.0002V90.4548H112.602V97.0002H111.596ZM112.108 89.3639C111.912 89.3639 111.743 89.2971 111.6 89.1636C111.461 89.0301 111.392 88.8696 111.392 88.6821C111.392 88.4946 111.461 88.3341 111.6 88.2005C111.743 88.067 111.912 88.0002 112.108 88.0002C112.304 88.0002 112.471 88.067 112.61 88.2005C112.752 88.3341 112.824 88.4946 112.824 88.6821C112.824 88.8696 112.752 89.0301 112.61 89.1636C112.471 89.2971 112.304 89.3639 112.108 89.3639ZM115.45 93.0627V97.0002H114.444V90.4548H115.415V91.4775H115.501C115.654 91.1451 115.887 90.8781 116.2 90.6764C116.512 90.4718 116.915 90.3696 117.41 90.3696C117.853 90.3696 118.241 90.4605 118.573 90.6423C118.906 90.8213 119.164 91.094 119.349 91.4605C119.533 91.8241 119.626 92.2843 119.626 92.8412V97.0002H118.62V92.9093C118.62 92.3951 118.487 91.9946 118.219 91.7076C117.952 91.4179 117.586 91.273 117.12 91.273C116.799 91.273 116.512 91.3426 116.259 91.4818C116.009 91.621 115.812 91.8241 115.667 92.0912C115.522 92.3582 115.45 92.6821 115.45 93.0627ZM124.208 97.1366C123.577 97.1366 123.033 96.9974 122.576 96.719C122.121 96.4377 121.77 96.0457 121.523 95.5429C121.279 95.0372 121.157 94.4491 121.157 93.7787C121.157 93.1082 121.279 92.5173 121.523 92.0059C121.77 91.4917 122.114 91.0912 122.554 90.8042C122.998 90.5144 123.515 90.3696 124.105 90.3696C124.446 90.3696 124.783 90.4264 125.115 90.54C125.448 90.6537 125.75 90.8383 126.023 91.094C126.296 91.3468 126.513 91.6821 126.675 92.0997C126.837 92.5173 126.918 93.0315 126.918 93.6423V94.0684H121.873V93.1991H125.895C125.895 92.8298 125.821 92.5002 125.674 92.2105C125.529 91.9207 125.321 91.692 125.051 91.5244C124.784 91.3568 124.469 91.273 124.105 91.273C123.705 91.273 123.358 91.3724 123.066 91.5713C122.776 91.7673 122.553 92.023 122.397 92.3383C122.24 92.6537 122.162 92.9917 122.162 93.3525V93.9321C122.162 94.4264 122.248 94.8454 122.418 95.1892C122.591 95.5301 122.831 95.79 123.138 95.969C123.445 96.1451 123.801 96.2332 124.208 96.2332C124.472 96.2332 124.711 96.1963 124.924 96.1224C125.14 96.0457 125.326 95.9321 125.482 95.7815C125.638 95.6281 125.759 95.4377 125.844 95.2105L126.816 95.4832C126.713 95.8127 126.542 96.1025 126.3 96.3525C126.059 96.5997 125.76 96.7929 125.405 96.9321C125.05 97.0684 124.651 97.1366 124.208 97.1366ZM130.919 97.1366C130.374 97.1366 129.892 96.9988 129.475 96.7233C129.057 96.4448 128.73 96.0528 128.495 95.5471C128.259 95.0386 128.141 94.4377 128.141 93.7446C128.141 93.0571 128.259 92.4605 128.495 91.9548C128.73 91.4491 129.059 91.0585 129.479 90.7829C129.9 90.5073 130.385 90.3696 130.936 90.3696C131.363 90.3696 131.699 90.4406 131.946 90.5826C132.196 90.7218 132.387 90.8809 132.517 91.0599C132.651 91.236 132.755 91.3809 132.828 91.4946H132.914V88.273H133.919V97.0002H132.948V95.9946H132.828C132.755 96.1139 132.65 96.2644 132.513 96.4463C132.377 96.6252 132.182 96.7858 131.929 96.9278C131.676 97.067 131.34 97.1366 130.919 97.1366ZM131.056 96.2332C131.459 96.2332 131.8 96.1281 132.078 95.9179C132.357 95.7048 132.569 95.4108 132.713 95.0358C132.858 94.6579 132.931 94.2218 132.931 93.7275C132.931 93.2389 132.86 92.8113 132.718 92.4448C132.576 92.0755 132.365 91.7886 132.087 91.5841C131.809 91.3767 131.465 91.273 131.056 91.273C130.63 91.273 130.275 91.3823 129.99 91.6011C129.709 91.817 129.498 92.111 129.355 92.4832C129.216 92.8525 129.147 93.2673 129.147 93.7275C129.147 94.1934 129.218 94.6167 129.36 94.9974C129.505 95.3752 129.718 95.6764 129.999 95.9008C130.283 96.1224 130.635 96.2332 131.056 96.2332ZM142.105 97.0002H139.412V88.273H142.225C143.071 88.273 143.796 88.4477 144.398 88.7971C145 89.1437 145.462 89.6423 145.783 90.2929C146.104 90.9406 146.265 91.7162 146.265 92.6196C146.265 93.5287 146.103 94.3113 145.779 94.9676C145.455 95.621 144.983 96.1238 144.364 96.4761C143.745 96.8255 142.992 97.0002 142.105 97.0002ZM140.469 96.0627H142.037C142.759 96.0627 143.357 95.9235 143.831 95.6451C144.306 95.3667 144.659 94.9704 144.892 94.4562C145.125 93.942 145.242 93.3298 145.242 92.6196C145.242 91.915 145.127 91.3085 144.897 90.8C144.667 90.2886 144.323 89.8966 143.865 89.6238C143.408 89.3483 142.838 89.2105 142.157 89.2105H140.469V96.0627ZM150.645 97.1366C150.015 97.1366 149.471 96.9974 149.013 96.719C148.559 96.4377 148.208 96.0457 147.961 95.5429C147.716 95.0372 147.594 94.4491 147.594 93.7787C147.594 93.1082 147.716 92.5173 147.961 92.0059C148.208 91.4917 148.551 91.0912 148.992 90.8042C149.435 90.5144 149.952 90.3696 150.543 90.3696C150.884 90.3696 151.221 90.4264 151.553 90.54C151.885 90.6537 152.188 90.8383 152.461 91.094C152.733 91.3468 152.951 91.6821 153.113 92.0997C153.275 92.5173 153.355 93.0315 153.355 93.6423V94.0684H148.31V93.1991H152.333C152.333 92.8298 152.259 92.5002 152.111 92.2105C151.966 91.9207 151.759 91.692 151.489 91.5244C151.222 91.3568 150.907 91.273 150.543 91.273C150.142 91.273 149.796 91.3724 149.503 91.5713C149.213 91.7673 148.99 92.023 148.834 92.3383C148.678 92.6537 148.6 92.9917 148.6 93.3525V93.9321C148.6 94.4264 148.685 94.8454 148.855 95.1892C149.029 95.5301 149.269 95.79 149.576 95.969C149.882 96.1451 150.239 96.2332 150.645 96.2332C150.909 96.2332 151.148 96.1963 151.361 96.1224C151.577 96.0457 151.763 95.9321 151.919 95.7815C152.076 95.6281 152.196 95.4377 152.282 95.2105L153.253 95.4832C153.151 95.8127 152.979 96.1025 152.738 96.3525C152.496 96.5997 152.198 96.7929 151.843 96.9321C151.488 97.0684 151.088 97.1366 150.645 97.1366ZM157.544 97.1366C156.931 97.1366 156.402 96.9917 155.959 96.7019C155.516 96.4122 155.175 96.013 154.936 95.5045C154.698 94.996 154.578 94.415 154.578 93.7616C154.578 93.0968 154.701 92.5102 154.945 92.0017C155.192 91.4903 155.536 91.0912 155.976 90.8042C156.419 90.5144 156.936 90.3696 157.527 90.3696C157.988 90.3696 158.402 90.4548 158.772 90.6252C159.141 90.7957 159.444 91.0343 159.679 91.3412C159.915 91.648 160.061 92.0059 160.118 92.415H159.113C159.036 92.1167 158.865 91.8525 158.601 91.6224C158.34 91.3894 157.988 91.273 157.544 91.273C157.152 91.273 156.809 91.3752 156.513 91.5798C156.221 91.7815 155.992 92.067 155.827 92.4363C155.665 92.8028 155.584 93.2332 155.584 93.7275C155.584 94.2332 155.664 94.6735 155.823 95.0485C155.985 95.4235 156.212 95.7147 156.505 95.9221C156.8 96.1295 157.147 96.2332 157.544 96.2332C157.806 96.2332 158.043 96.1877 158.256 96.0968C158.469 96.0059 158.65 95.8752 158.797 95.7048C158.945 95.5343 159.05 95.3298 159.113 95.0912H160.118C160.061 95.4775 159.921 95.8255 159.696 96.1352C159.475 96.442 159.181 96.6863 158.814 96.8681C158.451 97.0471 158.027 97.1366 157.544 97.1366ZM164.333 97.1366C163.702 97.1366 163.158 96.9974 162.701 96.719C162.246 96.4377 161.895 96.0457 161.648 95.5429C161.404 95.0372 161.282 94.4491 161.282 93.7787C161.282 93.1082 161.404 92.5173 161.648 92.0059C161.895 91.4917 162.239 91.0912 162.679 90.8042C163.123 90.5144 163.64 90.3696 164.23 90.3696C164.571 90.3696 164.908 90.4264 165.24 90.54C165.573 90.6537 165.875 90.8383 166.148 91.094C166.421 91.3468 166.638 91.6821 166.8 92.0997C166.962 92.5173 167.043 93.0315 167.043 93.6423V94.0684H161.998V93.1991H166.02C166.02 92.8298 165.946 92.5002 165.799 92.2105C165.654 91.9207 165.446 91.692 165.176 91.5244C164.909 91.3568 164.594 91.273 164.23 91.273C163.83 91.273 163.483 91.3724 163.191 91.5713C162.901 91.7673 162.678 92.023 162.522 92.3383C162.365 92.6537 162.287 92.9917 162.287 93.3525V93.9321C162.287 94.4264 162.373 94.8454 162.543 95.1892C162.716 95.5301 162.956 95.79 163.263 95.969C163.57 96.1451 163.926 96.2332 164.333 96.2332C164.597 96.2332 164.836 96.1963 165.049 96.1224C165.265 96.0457 165.451 95.9321 165.607 95.7815C165.763 95.6281 165.884 95.4377 165.969 95.2105L166.941 95.4832C166.838 95.8127 166.667 96.1025 166.425 96.3525C166.184 96.5997 165.885 96.7929 165.53 96.9321C165.175 97.0684 164.776 97.1366 164.333 97.1366ZM168.573 97.0002V90.4548H169.544V91.4775H169.63C169.766 91.1281 169.986 90.8568 170.29 90.6636C170.594 90.4676 170.959 90.3696 171.385 90.3696C171.817 90.3696 172.176 90.4676 172.463 90.6636C172.753 90.8568 172.979 91.1281 173.141 91.4775H173.209C173.377 91.1394 173.628 90.871 173.963 90.6721C174.299 90.4704 174.701 90.3696 175.169 90.3696C175.755 90.3696 176.233 90.5528 176.605 90.9193C176.978 91.2829 177.164 91.8497 177.164 92.6196V97.0002H176.158V92.6196C176.158 92.1366 176.026 91.7914 175.762 91.5841C175.498 91.3767 175.186 91.273 174.828 91.273C174.368 91.273 174.012 91.4122 173.759 91.6906C173.506 91.9662 173.38 92.3156 173.38 92.7389V97.0002H172.357V92.5173C172.357 92.1451 172.236 91.8454 171.995 91.6181C171.753 91.388 171.442 91.273 171.061 91.273C170.8 91.273 170.556 91.3426 170.328 91.4818C170.104 91.621 169.922 91.8142 169.783 92.0613C169.647 92.3056 169.578 92.5883 169.578 92.9093V97.0002H168.573ZM179.139 97.0002V88.273H180.145V91.4946H180.23C180.304 91.3809 180.406 91.236 180.537 91.0599C180.67 90.8809 180.86 90.7218 181.108 90.5826C181.358 90.4406 181.696 90.3696 182.122 90.3696C182.673 90.3696 183.159 90.5073 183.579 90.7829C184 91.0585 184.328 91.4491 184.564 91.9548C184.799 92.4605 184.917 93.0571 184.917 93.7446C184.917 94.4377 184.799 95.0386 184.564 95.5471C184.328 96.0528 184.001 96.4448 183.583 96.7233C183.166 96.9988 182.684 97.1366 182.139 97.1366C181.718 97.1366 181.382 97.067 181.129 96.9278C180.876 96.7858 180.681 96.6252 180.545 96.4463C180.409 96.2644 180.304 96.1139 180.23 95.9946H180.11V97.0002H179.139ZM180.127 93.7275C180.127 94.2218 180.2 94.6579 180.345 95.0358C180.49 95.4108 180.701 95.7048 180.98 95.9179C181.258 96.1281 181.599 96.2332 182.002 96.2332C182.423 96.2332 182.774 96.1224 183.055 95.9008C183.339 95.6764 183.552 95.3752 183.694 94.9974C183.839 94.6167 183.912 94.1934 183.912 93.7275C183.912 93.2673 183.841 92.8525 183.699 92.4832C183.559 92.111 183.348 91.817 183.064 91.6011C182.782 91.3823 182.429 91.273 182.002 91.273C181.593 91.273 181.25 91.3767 180.971 91.5841C180.693 91.7886 180.483 92.0755 180.341 92.4448C180.199 92.8113 180.127 93.2389 180.127 93.7275ZM189.2 97.1366C188.569 97.1366 188.025 96.9974 187.568 96.719C187.113 96.4377 186.762 96.0457 186.515 95.5429C186.271 95.0372 186.149 94.4491 186.149 93.7787C186.149 93.1082 186.271 92.5173 186.515 92.0059C186.762 91.4917 187.106 91.0912 187.547 90.8042C187.99 90.5144 188.507 90.3696 189.098 90.3696C189.439 90.3696 189.775 90.4264 190.108 90.54C190.44 90.6537 190.743 90.8383 191.015 91.094C191.288 91.3468 191.505 91.6821 191.667 92.0997C191.829 92.5173 191.91 93.0315 191.91 93.6423V94.0684H186.865V93.1991H190.887C190.887 92.8298 190.814 92.5002 190.666 92.2105C190.521 91.9207 190.314 91.692 190.044 91.5244C189.777 91.3568 189.461 91.273 189.098 91.273C188.697 91.273 188.35 91.3724 188.058 91.5713C187.768 91.7673 187.545 92.023 187.389 92.3383C187.233 92.6537 187.154 92.9917 187.154 93.3525V93.9321C187.154 94.4264 187.24 94.8454 187.41 95.1892C187.583 95.5301 187.824 95.79 188.13 95.969C188.437 96.1451 188.794 96.2332 189.2 96.2332C189.464 96.2332 189.703 96.1963 189.916 96.1224C190.132 96.0457 190.318 95.9321 190.474 95.7815C190.63 95.6281 190.751 95.4377 190.836 95.2105L191.808 95.4832C191.706 95.8127 191.534 96.1025 191.292 96.3525C191.051 96.5997 190.752 96.7929 190.397 96.9321C190.042 97.0684 189.643 97.1366 189.2 97.1366ZM193.44 97.0002V90.4548H194.412V91.4434H194.48C194.599 91.1196 194.815 90.8568 195.127 90.6551C195.44 90.4534 195.792 90.3525 196.184 90.3525C196.258 90.3525 196.35 90.3539 196.461 90.3568C196.572 90.3596 196.656 90.3639 196.713 90.3696V91.3923C196.679 91.3838 196.6 91.371 196.478 91.3539C196.359 91.3341 196.233 91.3241 196.099 91.3241C195.781 91.3241 195.497 91.3909 195.247 91.5244C195 91.6551 194.804 91.8369 194.659 92.0698C194.517 92.3 194.446 92.5627 194.446 92.8582V97.0002H193.44ZM201.263 97.0002V96.2332L204.143 93.0798C204.482 92.7105 204.76 92.3894 204.979 92.1167C205.197 91.8412 205.359 91.5826 205.464 91.3412C205.572 91.0968 205.626 90.8412 205.626 90.5741C205.626 90.2673 205.553 90.0017 205.405 89.7772C205.26 89.5528 205.061 89.3795 204.808 89.2573C204.555 89.1352 204.271 89.0741 203.956 89.0741C203.621 89.0741 203.328 89.1437 203.078 89.2829C202.831 89.4193 202.639 89.611 202.503 89.8582C202.369 90.1054 202.303 90.3951 202.303 90.7275H201.297C201.297 90.2162 201.415 89.7673 201.651 89.3809C201.886 88.9946 202.207 88.6934 202.614 88.4775C203.023 88.2616 203.482 88.1537 203.99 88.1537C204.501 88.1537 204.955 88.2616 205.349 88.4775C205.744 88.6934 206.054 88.9846 206.278 89.3511C206.503 89.7176 206.615 90.1252 206.615 90.5741C206.615 90.8951 206.557 91.2091 206.44 91.5159C206.327 91.8198 206.128 92.1593 205.844 92.5343C205.562 92.9065 205.172 93.361 204.672 93.898L202.712 95.9946V96.0627H206.768V97.0002H201.263ZM211.375 97.1196C210.733 97.1196 210.186 96.9448 209.734 96.5954C209.283 96.2431 208.938 95.7332 208.699 95.0656C208.46 94.3951 208.341 93.5855 208.341 92.6366C208.341 91.6934 208.46 90.888 208.699 90.2204C208.94 89.55 209.287 89.0386 209.739 88.6863C210.193 88.3312 210.739 88.1537 211.375 88.1537C212.011 88.1537 212.555 88.3312 213.007 88.6863C213.462 89.0386 213.808 89.55 214.047 90.2204C214.288 90.888 214.409 91.6934 214.409 92.6366C214.409 93.5855 214.29 94.3951 214.051 95.0656C213.812 95.7332 213.467 96.2431 213.016 96.5954C212.564 96.9448 212.017 97.1196 211.375 97.1196ZM211.375 96.1821C212.011 96.1821 212.506 95.8752 212.858 95.2616C213.21 94.648 213.386 93.773 213.386 92.6366C213.386 91.8809 213.305 91.2375 213.143 90.7062C212.984 90.175 212.754 89.7701 212.453 89.4917C212.155 89.2133 211.795 89.0741 211.375 89.0741C210.744 89.0741 210.251 89.3852 209.896 90.0073C209.541 90.6267 209.364 91.5031 209.364 92.6366C209.364 93.3923 209.443 94.0343 209.602 94.5627C209.761 95.0912 209.99 95.4931 210.288 95.7687C210.589 96.0443 210.952 96.1821 211.375 96.1821ZM216.028 97.0002V96.2332L218.909 93.0798C219.247 92.7105 219.526 92.3894 219.744 92.1167C219.963 91.8412 220.125 91.5826 220.23 91.3412C220.338 91.0968 220.392 90.8412 220.392 90.5741C220.392 90.2673 220.318 90.0017 220.17 89.7772C220.026 89.5528 219.827 89.3795 219.574 89.2573C219.321 89.1352 219.037 89.0741 218.722 89.0741C218.386 89.0741 218.094 89.1437 217.844 89.2829C217.597 89.4193 217.405 89.611 217.268 89.8582C217.135 90.1054 217.068 90.3951 217.068 90.7275H216.062C216.062 90.2162 216.18 89.7673 216.416 89.3809C216.652 88.9946 216.973 88.6934 217.379 88.4775C217.788 88.2616 218.247 88.1537 218.756 88.1537C219.267 88.1537 219.72 88.2616 220.115 88.4775C220.51 88.6934 220.82 88.9846 221.044 89.3511C221.268 89.7176 221.381 90.1252 221.381 90.5741C221.381 90.8951 221.322 91.2091 221.206 91.5159C221.092 91.8198 220.893 92.1593 220.609 92.5343C220.328 92.9065 219.938 93.361 219.438 93.898L217.477 95.9946V96.0627H221.534V97.0002H216.028ZM226.362 88.273V97.0002H225.305V89.3809H225.254L223.124 90.7957V89.7218L225.305 88.273H226.362Z" fill="#64748B"/>
</g>
<defs>
<filter id="filter0_d_4_462" x="0" y="0.000244141" width="328" height="126" filterUnits="userSpaceOnUse" color-interpolation-filters="sRGB">
<feFlood flood-opacity="0" result="BackgroundImageFix"/>
<feColorMatrix in="SourceAlpha" type="matrix" values="0 0 0 0 0 0 0 0 0 0 0 0 0 0 0 0 0 0 127 0" result="hardAlpha"/>
<feOffset dy="4"/>
<feGaussianBlur stdDeviation="2"/>
<feComposite in2="hardAlpha" operator="out"/>
<feColorMatrix type="matrix" values="0 0 0 0 0.683333 0 0 0 0 0.683333 0 0 0 0 0.683333 0 0 0 0.25 0"/>
<feBlend mode="normal" in2="BackgroundImageFix" result="effect1_dropShadow_4_462"/>
<feBlend mode="normal" in="SourceGraphic" in2="effect1_dropShadow_4_462" result="shape"/>
</filter>
<clipPath id="clip0_4_462">
<rect width="16" height="16" fill="white" transform="translate(77 85.0002)"/>
</clipPath>
</defs>
</svg>
